<svg width="48" height="48" viewBox="0 0 48 48" fill="none" xmlns="http://www.w3.org/2000/svg"><path d="M36.638 26.617a4.568 4.568 0 100-9.135 4.568 4.568 0 000 9.135z" fill="#00A94B"/><path d="M41.727 16.932a4.27 4.27 0 100-8.54 4.27 4.27 0 000 8.54z" fill="#FF4131"/><path d="M30.605 41.977a4.27 4.27 0 01-3.902-2.535L15.52 14.327a4.27 4.27 0 017.8-3.475L34.503 35.97a4.27 4.27 0 01-3.898 6.007z" fill="#FFBC00"/><path d="M17.402 41.91a4.647 4.647 0 01-4.245-2.755L2.364 14.91a4.643 4.643 0 018.482-3.778L21.64 35.377a4.643 4.643 0 01-4.238 6.533z" fill="#0085F7"/></svg>